%
M48
M72
T01C0.0170
T02C0.0236
T03C0.0276
T04C0.0300
T05C0.0320
T06C0.0354
T07C0.0394
T08C0.0400
T09C0.0866
%
T01
X15790Y9630
X16210Y12980
X16290Y13560
X16640Y14220
X18410Y14200
X18910Y14710
X19800Y15620
X20040Y16320
X18960Y16440
X16140Y18010
X15960Y16430
X21550Y14520
X23190Y14390
X22070Y13270
X25280Y14140
X26730Y13150
X26860Y12370
X27050Y14540
X27000Y16280
X25280Y16950
X26200Y18030
X23110Y16530
X22325Y18030
X30200Y15800
T02
X14820Y20660
X14600Y12760
T03
X31016Y14566
X31016Y16534
T04
X19550Y17780
X18550Y18780
X19550Y19780
X19550Y13280
X18550Y12280
X19550Y11280
T05
X23540Y10780
X24540Y10780
X24550Y20280
X23550Y20280
T06
X27780Y19780
X27780Y18780
X27800Y13280
X27800Y12280
X13920Y12280
X13920Y11280
X13920Y17780
X13920Y18780
T07
X32079Y16928
X32079Y14172
T08
X15330Y14530
X15230Y13530
X15230Y15530
X15330Y16530
X15230Y17530
T09
X11920Y16780
X11920Y14280
X11920Y10280
X11920Y20780
X29780Y20780
X29780Y16780
X29800Y14280
X29800Y10280
M30
