G75*
%MOIN*%
%OFA0B0*%
%FSLAX25Y25*%
%IPPOS*%
%LPD*%
%AMOC8*
5,1,8,0,0,1.08239X$1,22.5*
%
%ADD10C,0.05943*%
%ADD11C,0.11194*%
%ADD12R,0.06115X0.02375*%
%ADD13C,0.05156*%
%ADD14C,0.06337*%
%ADD15OC8,0.05600*%
%ADD16R,0.05400X0.05400*%
%ADD17C,0.05400*%
%ADD18C,0.08200*%
D10*
X0139200Y0112800D03*
X0139200Y0122800D03*
X0139200Y0177800D03*
X0139200Y0187800D03*
X0277800Y0187800D03*
X0277800Y0197800D03*
X0278000Y0132800D03*
X0278000Y0122800D03*
D11*
X0119200Y0102800D03*
X0119200Y0142800D03*
X0119200Y0167800D03*
X0119200Y0207800D03*
X0297800Y0207800D03*
X0297800Y0167800D03*
X0298000Y0142800D03*
X0298000Y0102800D03*
D12*
X0310161Y0150382D03*
X0310161Y0152941D03*
X0310161Y0155500D03*
X0310161Y0158059D03*
X0310161Y0160618D03*
D13*
X0310161Y0165343D03*
X0310161Y0145657D03*
D14*
X0320791Y0141720D03*
X0320791Y0169280D03*
D15*
X0245500Y0202800D03*
X0235500Y0202800D03*
X0235400Y0107800D03*
X0245400Y0107800D03*
D16*
X0195500Y0112800D03*
X0195500Y0177800D03*
D17*
X0185500Y0187800D03*
X0195500Y0197800D03*
X0195500Y0132800D03*
X0185500Y0122800D03*
D18*
X0152300Y0135300D03*
X0153300Y0145300D03*
X0152300Y0155300D03*
X0153300Y0165300D03*
X0152300Y0175300D03*
M02*
